<svg width="32" height="32" viewBox="0 0 32 32" fill="none" xmlns="http://www.w3.org/2000/svg">
<path d="M19 2.9035C19 1.852 18.148 1 17.0965 1H14.905C13.852 1 13 1.852 13 2.9035C13 3.7705 12.406 4.5145 11.5975 4.8325C11.47 4.8835 11.3425 4.9375 11.218 4.9915C10.4215 5.3365 9.475 5.2315 8.86 4.618C8.50306 4.26132 8.01911 4.06096 7.5145 4.06096C7.00989 4.06096 6.52594 4.26132 6.169 4.618L4.618 6.169C4.26132 6.52594 4.06096 7.00989 4.06096 7.5145C4.06096 8.01911 4.26132 8.50306 4.618 8.86C5.233 9.475 5.338 10.42 4.99 11.218C4.93532 11.3436 4.88282 11.4701 4.8325 11.5975C4.5145 12.406 3.7705 13 2.9035 13C1.852 13 1 13.852 1 14.9035V17.0965C1 18.148 1.852 19 2.9035 19C3.7705 19 4.5145 19.594 4.8325 20.4025C4.8835 20.53 4.9375 20.6575 4.99 20.782C5.3365 21.5785 5.2315 22.525 4.618 23.14C4.26132 23.4969 4.06096 23.9809 4.06096 24.4855C4.06096 24.9901 4.26132 25.4741 4.618 25.831L6.169 27.382C6.52594 27.7387 7.00989 27.939 7.5145 27.939C8.01911 27.939 8.50306 27.7387 8.86 27.382C9.475 26.767 10.42 26.662 11.218 27.0085C11.3425 27.064 11.47 27.1165 11.5975 27.1675C12.406 27.4855 13 28.2295 13 29.0965C13 30.148 13.852 31 14.9035 31H17.0965C18.148 31 19 30.148 19 29.0965C19 28.2295 19.594 27.4855 20.4025 27.166C20.53 27.1165 20.6575 27.064 20.782 27.01C21.5785 26.662 22.525 26.7685 23.1385 27.382C23.3153 27.5588 23.5251 27.6991 23.7561 27.7948C23.9871 27.8905 24.2347 27.9398 24.4847 27.9398C24.7348 27.9398 24.9824 27.8905 25.2134 27.7948C25.4444 27.6991 25.6542 27.5588 25.831 27.382L27.382 25.831C27.7387 25.4741 27.939 24.9901 27.939 24.4855C27.939 23.9809 27.7387 23.4969 27.382 23.14C26.767 22.525 26.662 21.58 27.0085 20.782C27.064 20.6575 27.1165 20.53 27.1675 20.4025C27.4855 19.594 28.2295 19 29.0965 19C30.148 19 31 18.148 31 17.0965V14.905C31 13.8535 30.148 13.0015 29.0965 13.0015C28.2295 13.0015 27.4855 12.4075 27.166 11.599C27.1157 11.4716 27.0632 11.3451 27.0085 11.2195C26.6635 10.423 26.7685 9.4765 27.382 8.8615C27.7387 8.50456 27.939 8.02061 27.939 7.516C27.939 7.01139 27.7387 6.52744 27.382 6.1705L25.831 4.6195C25.4741 4.26282 24.9901 4.06246 24.4855 4.06246C23.9809 4.06246 23.4969 4.26282 23.14 4.6195C22.525 5.2345 21.58 5.3395 20.782 4.993C20.6564 4.93781 20.5299 4.8848 20.4025 4.834C19.594 4.5145 19 3.7705 19 2.905V2.9035Z" stroke="black" stroke-opacity="0.6" stroke-width="2"/>
<path d="M22 16C22 17.5913 21.3679 19.1174 20.2426 20.2426C19.1174 21.3679 17.5913 22 16 22C14.4087 22 12.8826 21.3679 11.7574 20.2426C10.6321 19.1174 10 17.5913 10 16C10 14.4087 10.6321 12.8826 11.7574 11.7574C12.8826 10.6321 14.4087 10 16 10C17.5913 10 19.1174 10.6321 20.2426 11.7574C21.3679 12.8826 22 14.4087 22 16V16Z" stroke="black" stroke-opacity="0.6" stroke-width="2"/>
</svg>
